<?xml version="1.0" encoding="utf-8"?>
<!-- Generator: Adobe Illustrator 14.0.0, SVG Export Plug-In . SVG Version: 6.00 Build 43363)  -->
<!DOCTYPE svg PUBLIC "-//W3C//DTD SVG 1.1//EN" "http://www.w3.org/Graphics/SVG/1.1/DTD/svg11.dtd">
<svg version="1.1" id="Layer_1" xmlns="http://www.w3.org/2000/svg" xmlns:xlink="http://www.w3.org/1999/xlink" x="0px" y="0px"
	 width="600px" height="600px" viewBox="0 0 600 600" enable-background="new 0 0 600 600" xml:space="preserve">
<g>
	<circle fill="#779EED" cx="299.833" cy="299.997" r="255.286"/>
	<g>
		<path fill="none" stroke="#FFFFFF" stroke-width="0.9" stroke-linecap="round" stroke-linejoin="round" d="M156.202,89.004
			c0.038,0.062,15.538-11.579,16.378-10.234c0.979,1.567-35.96,19.813-33.804,23.264c1.812,2.899,51.115-38.016,53.846-33.646
			l-63.86,42.233c2.975,4.761,71.136-54.998,75.875-47.413c7.084,11.337-90.229,52.999-86.998,58.169
			c0.725,1.16,101.694-63.545,101.694-63.545c2.128,3.407-108.392,68.907-107.764,69.912
			c7.265,11.626,111.094-80.364,116.013-72.493c6.309,10.097-121.159,78.385-121.159,78.385
			c2.264,3.624,120.719-93.879,129.008-80.613c0,0-136.314,79.752-132.916,85.19c9.552,15.286,132.223-96.341,138.388-86.475
			c7.379,11.809-152.734,79.933-144.103,93.747c3.238,5.182,153.247-95.759,153.247-95.759
			c4.75,7.602-162.996,88.529-156.089,99.583c7.339,11.746,154.39-110.462,160.677-100.402
			C265.149,65.733,79.764,140.75,89.25,155.93c5.039,8.063,167.306-118.125,173.409-108.358
			C274.261,66.14,85.553,161.562,85.553,161.562c13.44,21.51,181.857-117.916,183.78-114.839
			C279.05,62.273,79.343,159.5,83.061,165.45c4.883,7.814,175.753-143.547,190.909-119.293
			C285.75,65.009,70.552,153.964,80.435,169.78L278.869,45.784C293.436,69.096,76.961,175.821,76.961,175.821
			c6.202,9.925,208.96-130.573,208.96-130.573S73.226,176.302,75.062,179.24c2.172,3.476,197.577-161.405,214.629-134.116
			C300.692,62.73,72.837,183.583,72.837,183.583C79.202,193.769,293.745,43.605,294.616,45
			C310.674,70.697,53.354,162.15,70.094,188.939c5.292,8.469,214.45-169.749,230.514-144.041
			C316.453,70.256,55.634,174.534,67.793,193.993c0,0,234.343-155.411,238.377-148.955c5.651,9.044-245.772,142.683-239.836,152.183
			C85.098,227.25,309.732,45.129,309.732,45.129c4.517,7.228-249.727,146.841-244.678,154.922L312.848,45.212
			c17.621,28.2-249.152,158.218-249.152,158.218c1.893,3.028,237.642-182.144,252.763-157.944
			c9.529,15.25-256.979,156.271-253.989,161.056C80.693,235.708,306.405,24.298,319.805,45.741
			c5.059,8.095-258.689,164.232-258.689,164.232L323.493,46.022c0,0-271.718,153.914-263.533,167.014
			C77.472,241.06,323.128,40.515,326.757,46.323C333.579,57.24,58.898,216.177,58.898,216.177
			c7.453,11.927,269.459-172.145,271.153-169.435c9.712,15.542-272.499,173.414-272.499,173.414
			C76.499,250.478,325.399,33.149,334.224,47.271C341.534,58.971,41.819,199.083,56.65,222.818
			c19.326,30.928,280.291-175.31,280.365-175.191C339.57,51.715,50.848,220.03,55.339,227.219
			C78.553,264.368,324.527,21.094,341.567,48.363c6.594,10.552-305.895,153.962-287.513,183.379
			C65.582,250.19,346.198,49.19,346.198,49.19C366.29,81.343,39.278,214.396,52.824,236.075
			c4.958,7.935,284.821-206.879,297.811-186.092C365.161,73.23,43.58,225.549,52.104,239.191L353.777,50.686
			c5.831,9.331-320.17,164.928-302.688,192.905c21.809,34.901,287.572-223.123,307.087-191.89
			c7.725,12.361-313.49,186.485-307.903,195.425C65.706,271.823,339.734,17.342,361.713,52.517c0,0-332.587,166.312-312.262,198.838
			c0,0,307.378-212.256,316.45-197.74c14.196,22.718-326.805,184.43-316.903,200.278c1.287,2.06,319.383-199.573,319.383-199.573
			C390.396,89.552,34.118,233.396,48.537,256.471C57.37,270.606,355.18,29.876,370.901,55.035
			c2.565,4.106-327.552,196.5-322.832,204.054c0,0,301.044-242.291,325.391-203.327C396.254,92.239,27.815,230.774,47.555,262.364
			c4.374,7,325.967-210.632,329.088-205.637c2.287,3.659-337.235,196.19-329.467,208.622
			c17.377,27.81,308.655-245.528,332.32-207.656c21.295,34.079-339.983,198.17-332.613,209.965
			C69.226,303.413,371.728,42.477,381.702,58.439c8.034,12.856-361.544,169.909-335.185,212.092
			c7.039,11.266,320.339-239.318,337.932-211.163C391.562,70.75,46.093,273.936,46.093,273.936
			C60.027,296.234,379.129,46.779,387.691,60.482C401.874,83.18,41.26,270.7,45.789,277.947
			C73.153,321.739,382.842,48.201,391.439,61.96c9.191,14.709-345.96,220.057-345.96,220.057
			c5.558,8.896,332.996-245.392,349.765-218.557C422.835,107.614,23.65,251.324,45.191,285.798
			c9.167,14.671,335.705-249.559,353.586-220.945c22.43,35.895-373.161,192.938-353.712,224.062
			c5.738,9.183,355.188-224.963,356.544-222.793c5.108,8.175-367.06,208.916-356.616,225.631
			C63.401,321.211,397.368,56.357,404.203,67.294c8.196,13.118-360.639,224.705-359.271,226.894
			C60.688,319.401,392.363,45.793,406.428,68.301c22.866,36.594-362.121,228.458-361.583,229.32
			C61.7,324.595,388.578,36.132,409.565,69.719c1.343,2.149-372.153,219.633-364.743,231.492
			c16.028,25.65,348.726-260.63,367.925-229.905c0,0-382.106,209.482-367.866,232.272c8.397,13.438,341.236-277.189,369.98-231.189
			C434.427,103.7,41.001,300.408,44.963,306.748c0.112,0.179,372.732-232.909,372.732-232.909
			C429.943,93.442,39.822,300.923,45.026,309.251c5.086,8.139,365.1-249.957,374.905-234.267
			C420.372,75.691,30.072,288.132,45.1,312.183C70.378,352.636,422.483,76.367,422.483,76.367
			c23.599,37.765-384.895,226.397-377.206,238.703c0,0,370.833-251.462,379.705-237.266
			c9.832,15.734-382.642,235.46-379.454,240.562c0,0,357.537-278.586,382.331-238.907c27.589,44.151-382.591,240.802-382.13,241.541
			c8.668,13.873,384.43-240.219,384.43-240.219c4.583,7.334-406.421,207.829-384.188,243.409L432.895,82.413
			c31.521,50.443-410.32,207.243-386.572,245.247C75.209,373.89,404.617,34.365,435.81,84.282
			c1.083,1.734-409.101,214.535-389.081,246.572c1.254,2.008,382.851-259.157,391.805-244.826
			c13.959,22.338-401.699,231.814-391.355,248.367c5.674,9.08,363.082-296.51,394.374-246.432
			C469.606,132.86,47.417,336.275,47.417,336.275c3.406,5.45,395.694-247.257,395.694-247.257
			c13.001,20.806-395.435,249.298-395.435,249.298c2.548,4.078,367.611-295.292,397.084-248.125
			c12.137,19.422-421.53,211.2-396.566,251.151c11.752,18.808,393.554-258.2,399.073-249.369
			c3.527,5.646-413.5,228.371-398.549,252.296C67.043,373.597,446.593,88.727,449.703,93.706
			c5.392,8.628-423.876,215.608-400.566,252.912C63.059,368.897,424.949,52.352,451.658,95.095c0,0-408.801,243.319-402.059,254.109
			c19.943,31.915,393.544-269.476,404.133-252.53c19.781,31.657-412.326,241.641-403.495,255.773
			C68.936,382.371,446.965,83.74,456.314,98.703c30.9,49.452-405.319,257.027-405.319,257.027
			c28.176,45.092,391.309-281.616,407.981-254.935c0,0-417.63,241.535-407.234,258.171
			c15.091,24.152,400.621-270.894,409.859-256.108c21.464,34.349-409.128,259.274-409.128,259.274
			c31.593,50.56,382.01-304.502,411.58-257.183L53.231,365.089c27.673,44.287,413.122-258.146,413.122-258.146
			c15.174,24.284-422.461,244.408-412.493,260.36c1.778,2.845,407.8-269.153,414.24-258.847
			c22.932,36.698-432.924,229.996-413.695,260.77c2.189,3.503,413.506-262.184,415.212-259.454
			C486.087,136.127,43.521,353.417,55.245,372.18c0,0,414.856-263.262,416.668-260.363c0,0-437.739,227.738-416.099,262.369
			c6.934,11.097,406.541-278.631,417.595-260.942c26.54,42.474-432.559,237.992-417.045,262.819
			C68.266,395.109,464.391,97.9,474.816,114.585c26.661,42.667-449.53,213.132-417.429,264.505c0,0,402.929-289.213,419.752-262.29
			L58.323,381.854c11.72,18.757,387.753-316.14,420.938-263.031c21.963,35.148-424.616,258.55-419.903,266.091
			c32.848,52.566,422.166-263.799,422.166-263.799C497.762,147.1,28.286,336.244,60.139,387.22
			c26.143,41.837,408.899-287.008,423.055-264.354c15.243,24.395-443.365,232.916-421.98,267.14
			c27.568,44.117,392.281-315.808,424.045-264.973c22.36,35.783-443.325,235.261-422.824,268.069
			c11.346,18.157,396.4-311.628,425.13-265.651c1.628,2.605-423.945,268.656-423.945,268.656
			c31.705,50.738,426.11-266.263,426.11-266.263c26.077,41.733-447.807,232.432-425.159,268.676
			C98.457,452.748,491.42,131.794,491.42,131.794S32.525,347.922,65.547,400.769C97.174,451.382,466.759,91.612,493.026,133.65
			c26.727,42.771-430.973,262.208-426.364,269.585c0,0,424.117-273.975,428.142-267.533
			c16.116,25.792-442.938,244.44-427.186,269.648c2.157,3.451,395.562-320.937,428.71-267.888
			c29.379,47.015-427.413,270.758-427.413,270.758c10.777,17.247,429.369-268.299,429.369-268.299
			c27.999,44.809-435.912,258.31-428.581,270.042C82.812,430.94,499.232,141.05,499.464,141.42c0,0-445.865,243.146-428.879,270.329
			c27.16,43.464,412.155-297.495,430.109-268.763c21.841,34.954-447.258,241.81-428.72,271.476c0,0,397.31-322.361,430.608-269.073
			c24.111,38.586-442.694,250.091-429.583,271.073c24.604,39.375,398.139-321.85,430.974-269.303
			c0,0-446.768,244.363-430.018,271.169c13.433,21.498,407.327-307.748,431.245-269.471
			C527.627,184.749,48.806,378.401,74.862,420.1c6.161,9.86,407.069-308.705,431.489-269.624
			c21.682,34.698-462.74,219.979-429.972,272.42c28.684,45.903,431.814-269.828,431.814-269.828
			c18.305,29.294-458.628,227.039-430.937,271.354c0.753,1.206,412.874-300.458,431.958-269.917
			c4.776,7.644-436.904,262.22-430.385,272.653c26.472,42.363,424.083-283.095,432.216-270.079L79.718,428.702
			c15.74,25.188,401.331-319.704,432.306-270.135C531.69,190.042,80.771,430.534,80.771,430.534
			c17.095,27.358,432.393-270.189,432.393-270.189c29.162,46.669-444.789,250.465-430.889,272.709
			c19.876,31.809,432.472-270.238,432.472-270.238c5.88,9.41-454.481,234.953-430.939,272.629
			C100.151,461.6,489.692,122.658,516.28,165.207C542.521,207.2,76.898,424.342,84.92,437.179c0,0,408.122-309.205,432.471-270.238
			c28.498,45.606-446.512,247.713-431.139,272.317c1.155,1.848,413.701-300.143,432.411-270.201
			c27.542,44.077-459.076,227.458-430.688,272.887c18.903,30.251,426.09-280.024,432.28-270.119
			c15.135,24.221-442.458,253.61-430.816,272.241C123.91,499.231,504.446,146.704,521.54,174.06
			c31.756,50.82-464.156,218.453-430.787,271.854c0,0,430.298-272.481,431.916-269.891
			c35.062,56.111-437.396,260.849-430.521,271.853l431.719-269.768c0,0-457.427,228.258-429.822,272.436
			c29.011,46.427,424.395-280.632,431.333-269.527c23.27,37.238-430.123,271.229-430.123,271.229
			c19.687,31.506,431.077-269.367,431.077-269.367C560.212,237.096,68.27,408.687,96.492,453.853
			c5.541,8.866,430.764-269.171,430.764-269.171c22.805,36.495-449.284,239.107-429.469,270.817
			c27.738,44.391,429.102-271.07,430.422-268.958c0,0-434.652,261.63-428.716,271.129
			c34.014,54.434,425.904-275.186,429.972-268.676c6.026,9.645-440.04,252.079-428.49,270.563
			c12.911,20.662,429.503-268.384,429.503-268.384c23.01,36.823-446.883,240.15-428.218,270.02
			c4.909,7.856,425.924-273.164,429.078-268.117c0,0-459.689,218.606-427.69,269.814c1.078,1.725,422.554-277.481,428.595-267.815
			L105.516,465.046c23.302,37.292,398.735-314.052,427.898-267.38c0,0-437.432,251.347-426.157,269.391
			c25.075,40.129,423.361-273.196,427.249-266.975c25.129,40.214-443.568,240.147-425.652,268.819
			c10.518,16.832,417.144-281.664,426.583-266.559C566.353,251.817,81.16,424.053,110.04,470.27
			c15.128,24.21,413.219-286.792,426.065-266.234c11.544,18.475-433.097,254.205-424.456,268.034
			c13.29,21.269,393.713-316.401,425.342-265.784c21.363,34.188-443.502,235.71-423.508,267.708
			c31.144,49.841,406.854-293.449,424.479-265.244c4.682,7.491-440.954,237.939-422.773,267.034
			c11.145,17.835,409.956-286.7,423.676-264.742c5.574,8.92-425.346,261.086-421.892,266.613
			c29.916,47.876,401.002-299.051,422.788-264.187c1.627,2.603-453.926,213.181-420.657,266.422
			c6.865,10.987,421.653-263.478,421.653-263.478S87.85,428.575,121.175,481.905c19.874,31.806,410.869-278.187,420.508-262.762
			c14.66,23.46-438.897,232.227-418.798,264.392c13.192,21.113,385.595-316.508,419.552-262.165
			c27.787,44.469-417.968,263.676-417.968,263.676s401.584-288.948,418.666-261.612c0,0-441.15,224.331-416.66,263.524
			c10.689,17.105,408.523-275.161,417.459-260.858c28.579,45.735-428.413,242.034-415.465,262.754
			c8.748,13.999,400.176-285.767,416.224-260.085c4.07,6.514-414.495,261.392-414.233,261.81
			c20.216,32.353,412.764-262.787,414.949-259.289c33.362,53.391-415.194,257.851-413.523,260.523
			c0,0,394.361-290.204,414.036-258.718c4.426,7.083-413.431,257.897-411.599,260.829c0,0,389.874-293.91,412.475-257.743
			L136.867,496.13c0.124,0.198,397.838-277.224,410.703-256.636c31.102,49.772-440.924,206.698-408.69,258.283
			c0,0,381.085-300.861,409.277-255.745c13.119,20.995-406.731,257.746-406.731,257.746
			c5.725,9.162,407.456-254.607,407.456-254.607c13.972,22.36-434.454,209.567-405.205,256.375l405.844-253.6
			c0.383,0.612-434.459,206.403-404.121,254.954c2.273,3.637,404.547-252.789,404.547-252.789
			c6.469,10.352-410.259,241.808-402.317,254.518c0,0,377.728-291.862,402.818-251.708c0,0-408.023,242.03-401.302,252.787
			c9.577,15.325,399.099-255.011,401.628-250.965c11.622,18.6-424.618,212.558-399.81,252.258
			c25.855,41.377,383.707-276.467,400.2-250.073C565.99,280.657,125.171,463.486,153.48,508.79
			c5.883,9.416,398.223-248.837,398.223-248.837c31.401,50.252-396.317,250.192-396.317,250.192
			c20.268,32.435,390.01-258.545,396.679-247.873c0,0-411.584,221.353-393.757,249.882c0,0,393.615-247.278,394.208-246.329
			c15.178,24.29-399.258,235.847-391.707,247.932c1.706,2.729,369.729-280.767,392.08-244.999
			c23.083,36.94-410.799,212.212-389.131,246.888l389.571-243.43c23.074,36.926-396.413,230.356-387.354,244.852
			c8.278,13.247,379.942-254.558,387.646-242.229C571.889,304.075,137.7,469.013,168.823,518.82
			c29.042,46.477,370.676-263.619,385.055-240.608c17.117,27.394-397.006,219.066-382.698,241.964
			c13.542,21.672,364.42-268.841,382.903-239.264c27.81,44.504-404.226,202.9-380.719,240.52
			c8.532,13.653,377.906-242.824,380.909-238.019c0,0-399.911,205.723-379.069,239.076c0,0,351.544-281.274,379.23-236.969
			c6.071,9.716-394.85,208.717-376.055,238.794c17.476,27.967,348.214-279.914,376.223-235.09c0,0-395.92,201.321-374.158,236.147
			c12.714,20.347,355.862-263.208,374.217-233.836c0,0-389.708,206.94-372.282,234.827c2.795,4.473,345.782-275.158,372.337-232.662
			c11.839,18.947-383.671,212.604-370.573,233.565c28.19,45.114,370.623-231.591,370.623-231.591
			c17.36,27.783-371.154,227.228-367.394,233.245c24.798,39.686,367.486-229.631,367.486-229.631S186.312,524.934,189.473,529.991
			c0,0,355.602-243.931,365.365-228.305c8.87,14.195-362.849,229.442-362.849,229.442
			c19.709,31.541,343.604-257.377,362.779-226.689c7.128,11.406-367.233,216.018-359.692,228.086
			c13.88,22.212,348.93-241.792,359.606-224.707c4.838,7.741-384.099,182.303-356.813,225.97c0,0,335.868-256.312,356.737-222.914
			c9.376,15.006-376.642,187.225-353.422,224.384c7.74,12.387,338.913-243.718,353.267-220.746
			c15.182,24.297-358.11,209.096-350.035,222.02c19.702,31.529,323.619-260.415,349.771-218.562
			c8.425,13.483-347.481,219.465-347.481,219.465l347.295-217.014c25.099,40.166-344.165,218.248-344.165,218.248
			c1.348,2.157,339.454-222.031,343.91-214.899c6.284,10.057-341.309,215.916-341.309,215.916
			c4.222,6.758,335.449-222.143,341.08-213.131c21.928,35.091-348.328,197.767-338.096,214.141
			c14.5,23.205,337.7-211.018,337.7-211.018c17.066,27.312-334.019,212.263-334.019,212.263
			c26.641,42.635,333.529-208.411,333.529-208.411c1.615,2.585-331.955,206.995-330.41,209.467
			c0.192,0.308,327.942-209.488,329.995-206.204c4.09,6.545-327.287,207.078-327.287,207.078
			c21.388,34.228,309.477-232.153,326.899-204.271c21.342,34.153-339.075,179.383-322.796,205.435
			c2.859,4.575,311.52-218.083,322.046-201.236c0,0-327.291,189.57-319.559,201.943c0.048,0.077,318.03-201.12,319.105-199.399
			c1.966,3.146-328.414,179.5-315.305,200.479c0,0,311.84-201.026,314.612-196.592c5.471,8.756-311.007,197.474-311.007,197.474
			s301.956-207.123,310.243-193.861c11.72,18.756-308.327,192.938-307.331,194.533c18.86,30.183,306.659-191.622,306.659-191.622
			c24.022,38.444-302.97,192.474-302.97,192.474c17.855,28.574,283.925-217.9,302.119-188.785
			c18.414,29.468-310.183,169.647-297.623,189.748c7.252,11.605,273.758-221.771,296.546-185.302
			c14.311,22.901-314.821,149.302-291.796,186.15c11.868,18.992,288.522-184.64,290.478-181.512
			c18.515,29.629-304.852,152.684-286.38,182.243c21.707,34.737,285.245-178.24,285.245-178.24
			c1.329,2.126-280.838,178.919-280.838,178.919c6.329,10.128,276.12-180.145,279.538-174.676
			c21.419,34.278-277.183,174.166-276.634,175.045l275.696-172.274c6.801,10.883-285.487,151.345-272.125,172.728
			c17.767,28.433,256.566-192.377,270.973-169.322c20.475,32.767-273.625,157.431-265.815,169.929
			c0.208,0.334,264.105-165.031,264.105-165.031c11.252,18.007-271.729,144.714-258.78,165.437
			c15.938,25.507,254.847-163.653,256.827-160.483c0.185,0.295-260.262,149.318-253.108,160.767
			c16.901,27.047,243.449-170.583,251.745-157.308c12.798,20.481-258.194,138.951-246.548,157.589
			c5.662,9.06,243.171-154.916,244.503-152.783c0,0-249.91,138.592-240.986,152.872c0.271,0.435,227.736-168.585,239.547-149.686
			c4.613,7.384-234.1,149.823-234.1,149.823c10.78,17.251,229.462-148.737,231.869-144.888
			c1.445,2.313-240.48,123.042-226.849,144.858c5.102,8.164,224.562-140.321,224.562-140.321l-220.61,140.222
			c3.105,4.971,211.506-148.454,218.826-136.738c0.72,1.151-225.145,120.416-215.006,136.642c0,0,203.714-148.581,213.28-133.272
			c11.334,18.138-209.91,130.626-208.416,133.018c0,0,201.845-135.235,205.938-128.685
			c14.812,23.704-206.305,118.408-200.157,128.245c14.436,23.103,192.153-131.546,197.311-123.293
			c0,0-194.411,118.611-191.778,122.824c0,0,176.992-136.786,188.762-117.951c11.749,18.803-187.259,108.349-181.811,117.067
			c0,0,165-132.273,178.109-111.294c7.461,11.94-181.578,98.202-173.744,110.739l171.131-106.935
			c6.18,9.89-162.971,105.505-162.971,105.505c11.85,18.964,153.96-105.811,158.276-98.902l-152.424,97.809
			c0,0,142.694-102.314,148.604-92.858c3.321,5.315-148.755,75-138.983,90.638c2.45,3.921,130.321-86.975,132.812-82.989
			c6.011,9.62-126.917,75.039-123.535,80.452c1.324,2.119,114.185-78.468,117.383-73.35c4.41,7.058-111.846,66.307-109.05,70.781
			c2.19,3.504,95.777-75.594,102.854-64.27c0,0-100.561,49.486-93.372,60.989c2.363,3.782,80.864-62.003,86.021-53.752
			c1.014,1.624-72.763,43.24-70.272,47.226c0,0,57.407-37.061,57.941-36.206c0.573,0.918-38.26,20.788-35.727,24.842
			c1.112,1.781,15.792-11.179,16.381-10.236"/>
	</g>
	<circle fill="none" stroke="#3159A9" stroke-width="60" cx="299.833" cy="299.997" r="255.286"/>
</g>
</svg>
